<svg width="20" height="28" fill="none" xmlns="http://www.w3.org/2000/svg">
    <g fill="#fff">
        <path d="M14.248.5c-.539 0-1.036.196-1.399.565-.363.369-.556.873-.556 1.421V3.97a4.957 4.957 0 0 0-2.987-.999c-2.779 0-5.031 2.288-5.031 5.11v8.177c0 2.822 2.252 5.11 5.03 5.11 2.779 0 5.031-2.288 5.031-5.11v-4.104c.506-.02.965-.215 1.303-.563.357-.367.542-.865.542-1.399V8.478a.22.22 0 0 1 .218-.22h1.44c.527 0 1.01-.19 1.366-.546a1.92 1.92 0 0 0 .545-1.373c0-.535-.187-1.027-.548-1.384-.36-.356-.845-.534-1.363-.534H16.4a.22.22 0 0 1-.218-.22V2.485c0-.54-.182-1.043-.539-1.415C15.283.697 14.79.5 14.25.5ZM13.6 2.486c0-.227.077-.384.174-.482.097-.099.25-.176.475-.176.222 0 .367.076.457.17.092.095.168.253.168.488V4.2c0 .856.683 1.55 1.525 1.55h1.44c.223 0 .367.072.45.156.083.081.154.217.154.433 0 .201-.069.34-.157.428-.088.089-.232.162-.447.162H16.4c-.842 0-1.525.694-1.525 1.55v1.713c0 .22-.073.37-.165.466-.09.093-.238.17-.46.17-.41 0-.649-.258-.649-.636V8.478c0-.855-.682-1.549-1.525-1.549h-1.44a.566.566 0 0 1-.421-.159c-.088-.09-.16-.235-.16-.454 0-.2.068-.331.15-.413.085-.084.224-.154.43-.154h1.441c.843 0 1.525-.693 1.525-1.549V2.486Z"/>
        <path d="M16.348 12.17c0-.565.45-1.022 1.006-1.022s1.006.457 1.006 1.022v4.088c-.002 4.683-3.467 8.616-8.049 9.137V27.5H8.3v-2.105C3.718 24.875.252 20.94.25 16.258V12.17c0-.565.45-1.022 1.006-1.022s1.006.457 1.006 1.022v4.088c0 3.95 3.153 7.154 7.043 7.154s7.043-3.203 7.043-7.154V12.17Z"/>
    </g>
</svg>
