<svg width="24" height="20" fill="none" xmlns="http://www.w3.org/2000/svg">
    <path d="M12.426 1.965c2.646-2.62 6.934-2.62 9.58-.002 2.661 2.609 2.656 6.886.002 9.512l-7.606 7.527a3.437 3.437 0 0 1-4.844 0l-7.59-7.511A6.743 6.743 0 0 1 0 6.73c0-1.79.684-3.488 1.974-4.765C4.6-.658 8.89-.653 11.536 1.988a.63.63 0 0 0 .883-.017l.007-.006Zm1.324 1.354c-.964.97-2.547 1.004-3.536.025l-.004-.003C8.296 1.427 5.187 1.432 3.3 3.319l-.003.003a4.739 4.739 0 0 0-1.411 3.409c0 1.281.505 2.492 1.414 3.413l7.58 7.5c.61.605 1.59.605 2.201 0l7.606-7.527c1.905-1.885 1.9-4.933.003-6.792l-.003-.003c-1.912-1.892-5.024-1.893-6.937-.003Z" fill="#fff"/>
</svg>
