<svg width="32" height="32" fill="none" xmlns="http://www.w3.org/2000/svg">
    <path fill-rule="evenodd" clip-rule="evenodd" d="M10 9.908a1.176 1.176 0 0 1-.6 1.028L5.8 12.99a1.21 1.21 0 0 1-1.64-.434 1.177 1.177 0 0 1-.16-.594v-4.11a1.176 1.176 0 0 1 .6-1.027 1.21 1.21 0 0 1 1.2 0L9.4 8.88a1.193 1.193 0 0 1 .6 1.027Zm-4.8 5.933c-.318 0-.623.125-.849.348a1.18 1.18 0 0 0 0 1.677c.226.223.53.348.849.348h21.6c.318 0 .623-.125.848-.348a1.18 1.18 0 0 0 0-1.677 1.207 1.207 0 0 0-.848-.348H5.2Zm7.2-5.933c0-.314.126-.616.351-.839.226-.222.53-.347.849-.347h13.2c.318 0 .623.125.848.347a1.18 1.18 0 0 1 0 1.678c-.224.223-.53.348-.848.348H13.6c-.318 0-.623-.125-.848-.348a1.18 1.18 0 0 1-.352-.839ZM5.2 22.96c-.318 0-.623.125-.849.348a1.18 1.18 0 0 0 0 1.678c.226.222.53.347.849.347h21.6c.318 0 .623-.125.848-.347a1.18 1.18 0 0 0 0-1.678 1.207 1.207 0 0 0-.848-.348H5.2Z" fill="#fff"/>
</svg>
